<svg xmlns="http://www.w3.org/2000/svg" width="800" height="500" viewBox="0 0 800 500"><defs><radialGradient id="g"><stop stop-color="#514064"/><stop offset="1" stop-color="#231e30"/></radialGradient></defs><rect width="800" height="500" fill="url(#g)"/><circle cx="400" cy="250" r="183" fill="none" stroke="#a88cbd" stroke-opacity=".25"/><circle cx="400" cy="250" r="150" fill="none" stroke="#a88cbd" stroke-opacity=".15"/><g transform="translate(230 95) rotate(-14 95 145)"><rect width="190" height="290" rx="14" fill="#302936" stroke="#bca4d1" stroke-width="3"/><rect x="13" y="13" width="164" height="264" rx="8" fill="none" stroke="#6d557c"/><path d="m95 60 48 77-48 63-48-63z" fill="#bca4d1"/><path d="m95 78 28 58-28 42z" fill="#554260"/><path d="M48 230h94M68 245h54" stroke="#ae91be" stroke-width="5"/></g><g transform="translate(410 115) rotate(15 95 145)"><rect width="190" height="290" rx="14" fill="#242d39" stroke="#a0bbc9" stroke-width="3"/><rect x="13" y="13" width="164" height="264" rx="8" fill="none" stroke="#576d80"/><path d="m95 59 54 24v63q-15 39-54 60-39-21-54-60V83z" fill="#a0bbc9"/><path d="m95 80 32 15v48q-9 26-32 40z" fill="#4d6476"/><path d="M48 230h94M68 245h54" stroke="#a0bbc9" stroke-width="5"/></g><text x="44" y="455" fill="#d5c7e5" font-family="monospace" font-size="14" letter-spacing="3">01 / BATALLA DE CARTAS</text></svg>
